<svg xmlns="http://www.w3.org/2000/svg" xmlns:xlink="http://www.w3.org/1999/xlink" width="500" zoomAndPan="magnify" viewBox="0 0 375 58.499998" height="78" preserveAspectRatio="xMidYMid meet" version="1.0"><defs><g/><clipPath id="940c669f06"><path d="M 1.589844 48 L 250 48 L 250 57 L 1.589844 57 Z M 1.589844 48 " clip-rule="nonzero"/></clipPath></defs><g clip-path="url(#940c669f06)"><path stroke-linecap="butt" transform="matrix(0.742689, 0, 0, 0.743644, 1.588989, 48.459682)" fill="none" stroke-linejoin="miter" d="M 0.00115034 5.501421 L 328.431973 5.501421 " stroke="#000000" stroke-width="11" stroke-opacity="1" stroke-miterlimit="4"/></g><g fill="#000000" fill-opacity="1"><g transform="translate(1.588989, 38.782432)"><g><path d="M 24.859375 -14.921875 C 26.484375 -14.347656 27.757812 -13.453125 28.6875 -12.234375 C 29.613281 -11.023438 30.078125 -9.5625 30.078125 -7.84375 C 30.078125 -5.34375 29.066406 -3.410156 27.046875 -2.046875 C 25.035156 -0.679688 22.125 0 18.3125 0 L 2.859375 0 L 2.859375 -28.609375 L 17.5 -28.609375 C 21.144531 -28.609375 23.921875 -27.929688 25.828125 -26.578125 C 27.734375 -25.234375 28.6875 -23.414062 28.6875 -21.125 C 28.6875 -19.769531 28.351562 -18.550781 27.6875 -17.46875 C 27.019531 -16.394531 26.078125 -15.546875 24.859375 -14.921875 Z M 10.875 -22.765625 L 10.875 -17.25 L 16.4375 -17.25 C 19.15625 -17.25 20.515625 -18.175781 20.515625 -20.03125 C 20.515625 -21.851562 19.15625 -22.765625 16.4375 -22.765625 Z M 17.65625 -5.84375 C 20.488281 -5.84375 21.90625 -6.8125 21.90625 -8.75 C 21.90625 -10.6875 20.488281 -11.65625 17.65625 -11.65625 L 10.875 -11.65625 L 10.875 -5.84375 Z M 17.65625 -5.84375 "/></g></g></g><g fill="#000000" fill-opacity="1"><g transform="translate(36.57471, 38.782432)"><g><path d="M 15.375 -7.609375 L 10.953125 -7.609375 L 10.953125 0 L 2.859375 0 L 2.859375 -28.609375 L 15.9375 -28.609375 C 18.53125 -28.609375 20.78125 -28.175781 22.6875 -27.3125 C 24.59375 -26.457031 26.0625 -25.234375 27.09375 -23.640625 C 28.132812 -22.046875 28.65625 -20.175781 28.65625 -18.03125 C 28.65625 -15.957031 28.171875 -14.148438 27.203125 -12.609375 C 26.234375 -11.066406 24.847656 -9.863281 23.046875 -9 L 29.21875 0 L 20.5625 0 Z M 20.484375 -18.03125 C 20.484375 -19.363281 20.054688 -20.394531 19.203125 -21.125 C 18.359375 -21.863281 17.109375 -22.234375 15.453125 -22.234375 L 10.953125 -22.234375 L 10.953125 -13.859375 L 15.453125 -13.859375 C 17.109375 -13.859375 18.359375 -14.21875 19.203125 -14.9375 C 20.054688 -15.65625 20.484375 -16.6875 20.484375 -18.03125 Z M 20.484375 -18.03125 "/></g></g></g><g fill="#000000" fill-opacity="1"><g transform="translate(70.37518, 38.782432)"><g><path d="M 25.828125 -6.25 L 25.828125 0 L 2.859375 0 L 2.859375 -28.609375 L 25.296875 -28.609375 L 25.296875 -22.359375 L 10.875 -22.359375 L 10.875 -17.53125 L 23.578125 -17.53125 L 23.578125 -11.484375 L 10.875 -11.484375 L 10.875 -6.25 Z M 25.828125 -6.25 "/></g></g></g><g fill="#000000" fill-opacity="1"><g transform="translate(101.396454, 38.782432)"><g><path d="M 47.734375 -28.609375 L 38.46875 0 L 29.796875 0 L 24.328125 -17.40625 L 18.59375 0 L 9.9375 0 L 0.65625 -28.609375 L 9 -28.609375 L 14.75 -10.34375 L 20.8125 -28.609375 L 28.25 -28.609375 L 34.015625 -10.171875 L 40.015625 -28.609375 Z M 47.734375 -28.609375 "/></g></g></g><g fill="#000000" fill-opacity="1"><g transform="translate(153.343473, 38.782432)"><g><path d="M 25.828125 -6.25 L 25.828125 0 L 2.859375 0 L 2.859375 -28.609375 L 25.296875 -28.609375 L 25.296875 -22.359375 L 10.875 -22.359375 L 10.875 -17.53125 L 23.578125 -17.53125 L 23.578125 -11.484375 L 10.875 -11.484375 L 10.875 -6.25 Z M 25.828125 -6.25 "/></g></g></g><g fill="#000000" fill-opacity="1"><g transform="translate(184.364738, 38.782432)"><g><path d="M 30.078125 -28.609375 L 30.078125 0 L 23.421875 0 L 10.796875 -15.25 L 10.796875 0 L 2.859375 0 L 2.859375 -28.609375 L 9.53125 -28.609375 L 22.15625 -13.359375 L 22.15625 -28.609375 Z M 30.078125 -28.609375 "/></g></g></g><g fill="#000000" fill-opacity="1"><g transform="translate(220.862664, 38.782432)"><g><path d="M 5.765625 0.375 C 4.453125 0.375 3.347656 -0.0625 2.453125 -0.9375 C 1.554688 -1.8125 1.109375 -2.914062 1.109375 -4.25 C 1.109375 -5.613281 1.550781 -6.71875 2.4375 -7.5625 C 3.320312 -8.40625 4.429688 -8.828125 5.765625 -8.828125 C 7.128906 -8.828125 8.242188 -8.40625 9.109375 -7.5625 C 9.984375 -6.71875 10.421875 -5.613281 10.421875 -4.25 C 10.421875 -2.914062 9.976562 -1.8125 9.09375 -0.9375 C 8.207031 -0.0625 7.097656 0.375 5.765625 0.375 Z M 5.765625 0.375 "/></g></g></g><g fill="#000000" fill-opacity="1"><g transform="translate(235.985269, 38.782432)"><g><path d="M 2.859375 -28.609375 L 16.390625 -28.609375 C 19.523438 -28.609375 22.304688 -28.019531 24.734375 -26.84375 C 27.160156 -25.675781 29.039062 -24.015625 30.375 -21.859375 C 31.707031 -19.710938 32.375 -17.195312 32.375 -14.3125 C 32.375 -11.414062 31.707031 -8.890625 30.375 -6.734375 C 29.039062 -4.585938 27.160156 -2.925781 24.734375 -1.75 C 22.304688 -0.582031 19.523438 0 16.390625 0 L 2.859375 0 Z M 16.0625 -6.453125 C 18.519531 -6.453125 20.488281 -7.144531 21.96875 -8.53125 C 23.457031 -9.925781 24.203125 -11.851562 24.203125 -14.3125 C 24.203125 -16.757812 23.457031 -18.675781 21.96875 -20.0625 C 20.488281 -21.457031 18.519531 -22.15625 16.0625 -22.15625 L 10.953125 -22.15625 L 10.953125 -6.453125 Z M 16.0625 -6.453125 "/></g></g></g><g fill="#000000" fill-opacity="1"><g transform="translate(273.300599, 38.782432)"><g><path d="M 25.828125 -6.25 L 25.828125 0 L 2.859375 0 L 2.859375 -28.609375 L 25.296875 -28.609375 L 25.296875 -22.359375 L 10.875 -22.359375 L 10.875 -17.53125 L 23.578125 -17.53125 L 23.578125 -11.484375 L 10.875 -11.484375 L 10.875 -6.25 Z M 25.828125 -6.25 "/></g></g></g><g fill="#000000" fill-opacity="1"><g transform="translate(304.321864, 38.782432)"><g><path d="M 31.875 -28.609375 L 19.625 0 L 11.65625 0 L -0.578125 -28.609375 L 8.171875 -28.609375 L 15.9375 -9.96875 L 23.875 -28.609375 Z M 31.875 -28.609375 "/></g></g></g><g fill="#000000" fill-opacity="1"><g transform="translate(249.513221, 54.477219)"><g><path d="M 5.21875 -3.28125 C 5.582031 -3.175781 5.867188 -2.988281 6.078125 -2.71875 C 6.285156 -2.457031 6.390625 -2.117188 6.390625 -1.703125 C 6.390625 -1.160156 6.179688 -0.738281 5.765625 -0.4375 C 5.359375 -0.144531 4.757812 0 3.96875 0 L 0.953125 0 L 0.953125 -6.328125 L 3.796875 -6.328125 C 4.515625 -6.328125 5.070312 -6.179688 5.46875 -5.890625 C 5.863281 -5.609375 6.0625 -5.207031 6.0625 -4.6875 C 6.0625 -4.363281 5.984375 -4.078125 5.828125 -3.828125 C 5.671875 -3.585938 5.46875 -3.40625 5.21875 -3.28125 Z M 1.859375 -5.59375 L 1.859375 -3.578125 L 3.703125 -3.578125 C 4.171875 -3.578125 4.53125 -3.660156 4.78125 -3.828125 C 5.03125 -4.003906 5.15625 -4.257812 5.15625 -4.59375 C 5.15625 -4.914062 5.03125 -5.160156 4.78125 -5.328125 C 4.53125 -5.503906 4.171875 -5.59375 3.703125 -5.59375 Z M 3.9375 -0.734375 C 4.445312 -0.734375 4.832031 -0.816406 5.09375 -0.984375 C 5.351562 -1.148438 5.484375 -1.414062 5.484375 -1.78125 C 5.484375 -2.488281 4.96875 -2.84375 3.9375 -2.84375 L 1.859375 -2.84375 L 1.859375 -0.734375 Z M 3.9375 -0.734375 "/></g></g></g><g fill="#000000" fill-opacity="1"><g transform="translate(258.602859, 54.477219)"><g><path d="M 5.1875 0 L 3.8125 -1.9375 C 3.644531 -1.925781 3.515625 -1.921875 3.421875 -1.921875 L 1.859375 -1.921875 L 1.859375 0 L 0.953125 0 L 0.953125 -6.328125 L 3.421875 -6.328125 C 4.242188 -6.328125 4.890625 -6.128906 5.359375 -5.734375 C 5.828125 -5.347656 6.0625 -4.8125 6.0625 -4.125 C 6.0625 -3.632812 5.941406 -3.21875 5.703125 -2.875 C 5.460938 -2.53125 5.117188 -2.28125 4.671875 -2.125 L 6.171875 0 Z M 3.390625 -2.703125 C 3.960938 -2.703125 4.398438 -2.820312 4.703125 -3.0625 C 5.003906 -3.3125 5.15625 -3.664062 5.15625 -4.125 C 5.15625 -4.582031 5.003906 -4.929688 4.703125 -5.171875 C 4.398438 -5.421875 3.960938 -5.546875 3.390625 -5.546875 L 1.859375 -5.546875 L 1.859375 -2.703125 Z M 3.390625 -2.703125 "/></g></g></g><g fill="#000000" fill-opacity="1"><g transform="translate(267.421206, 54.477219)"><g><path d="M 5.546875 -0.78125 L 5.546875 0 L 0.953125 0 L 0.953125 -6.328125 L 5.421875 -6.328125 L 5.421875 -5.546875 L 1.859375 -5.546875 L 1.859375 -3.59375 L 5.03125 -3.59375 L 5.03125 -2.828125 L 1.859375 -2.828125 L 1.859375 -0.78125 Z M 5.546875 -0.78125 "/></g></g></g><g fill="#000000" fill-opacity="1"><g transform="translate(275.724106, 54.477219)"><g><path d="M 9.890625 -6.328125 L 7.78125 0 L 6.828125 0 L 5.109375 -5.0625 L 3.375 0 L 2.40625 0 L 0.296875 -6.328125 L 1.21875 -6.328125 L 2.9375 -1.1875 L 4.71875 -6.328125 L 5.546875 -6.328125 L 7.296875 -1.15625 L 9.03125 -6.328125 Z M 9.890625 -6.328125 "/></g></g></g><g fill="#000000" fill-opacity="1"><g transform="translate(288.150598, 54.477219)"><g><path d="M 5.546875 -0.78125 L 5.546875 0 L 0.953125 0 L 0.953125 -6.328125 L 5.421875 -6.328125 L 5.421875 -5.546875 L 1.859375 -5.546875 L 1.859375 -3.59375 L 5.03125 -3.59375 L 5.03125 -2.828125 L 1.859375 -2.828125 L 1.859375 -0.78125 Z M 5.546875 -0.78125 "/></g></g></g><g fill="#000000" fill-opacity="1"><g transform="translate(296.453498, 54.477219)"><g><path d="M 6.390625 -6.328125 L 6.390625 0 L 5.65625 0 L 1.859375 -4.71875 L 1.859375 0 L 0.953125 0 L 0.953125 -6.328125 L 1.6875 -6.328125 L 5.484375 -1.609375 L 5.484375 -6.328125 Z M 6.390625 -6.328125 "/></g></g></g><g fill="#000000" fill-opacity="1"><g transform="translate(306.040495, 54.477219)"><g/></g></g><g fill="#000000" fill-opacity="1"><g transform="translate(310.717161, 54.477219)"><g><path d="M 3.78125 0.078125 C 3.144531 0.078125 2.570312 -0.0625 2.0625 -0.34375 C 1.550781 -0.625 1.148438 -1.007812 0.859375 -1.5 C 0.578125 -2 0.4375 -2.554688 0.4375 -3.171875 C 0.4375 -3.785156 0.578125 -4.335938 0.859375 -4.828125 C 1.148438 -5.316406 1.550781 -5.703125 2.0625 -5.984375 C 2.582031 -6.265625 3.160156 -6.40625 3.796875 -6.40625 C 4.285156 -6.40625 4.734375 -6.320312 5.140625 -6.15625 C 5.554688 -5.988281 5.910156 -5.742188 6.203125 -5.421875 L 5.609375 -4.84375 C 5.128906 -5.34375 4.535156 -5.59375 3.828125 -5.59375 C 3.359375 -5.59375 2.929688 -5.488281 2.546875 -5.28125 C 2.171875 -5.070312 1.875 -4.78125 1.65625 -4.40625 C 1.445312 -4.039062 1.34375 -3.628906 1.34375 -3.171875 C 1.34375 -2.710938 1.445312 -2.296875 1.65625 -1.921875 C 1.875 -1.546875 2.171875 -1.253906 2.546875 -1.046875 C 2.929688 -0.835938 3.359375 -0.734375 3.828125 -0.734375 C 4.535156 -0.734375 5.128906 -0.988281 5.609375 -1.5 L 6.203125 -0.921875 C 5.910156 -0.597656 5.554688 -0.347656 5.140625 -0.171875 C 4.722656 -0.00390625 4.269531 0.078125 3.78125 0.078125 Z M 3.78125 0.078125 "/></g></g></g><g fill="#000000" fill-opacity="1"><g transform="translate(319.499332, 54.477219)"><g><path d="M 3.8125 0.078125 C 3.164062 0.078125 2.585938 -0.0625 2.078125 -0.34375 C 1.566406 -0.625 1.164062 -1.007812 0.875 -1.5 C 0.582031 -2 0.4375 -2.554688 0.4375 -3.171875 C 0.4375 -3.773438 0.582031 -4.320312 0.875 -4.8125 C 1.164062 -5.3125 1.566406 -5.703125 2.078125 -5.984375 C 2.585938 -6.265625 3.164062 -6.40625 3.8125 -6.40625 C 4.445312 -6.40625 5.019531 -6.265625 5.53125 -5.984375 C 6.039062 -5.703125 6.441406 -5.316406 6.734375 -4.828125 C 7.023438 -4.335938 7.171875 -3.785156 7.171875 -3.171875 C 7.171875 -2.554688 7.023438 -2 6.734375 -1.5 C 6.441406 -1.007812 6.039062 -0.625 5.53125 -0.34375 C 5.019531 -0.0625 4.445312 0.078125 3.8125 0.078125 Z M 3.8125 -0.734375 C 4.269531 -0.734375 4.6875 -0.835938 5.0625 -1.046875 C 5.4375 -1.253906 5.726562 -1.546875 5.9375 -1.921875 C 6.15625 -2.296875 6.265625 -2.710938 6.265625 -3.171875 C 6.265625 -3.628906 6.15625 -4.039062 5.9375 -4.40625 C 5.726562 -4.78125 5.4375 -5.070312 5.0625 -5.28125 C 4.6875 -5.488281 4.269531 -5.59375 3.8125 -5.59375 C 3.34375 -5.59375 2.921875 -5.488281 2.546875 -5.28125 C 2.171875 -5.070312 1.875 -4.78125 1.65625 -4.40625 C 1.445312 -4.039062 1.34375 -3.628906 1.34375 -3.171875 C 1.34375 -2.710938 1.445312 -2.296875 1.65625 -1.921875 C 1.875 -1.546875 2.171875 -1.253906 2.546875 -1.046875 C 2.921875 -0.835938 3.34375 -0.734375 3.8125 -0.734375 Z M 3.8125 -0.734375 "/></g></g></g><g fill="#000000" fill-opacity="1"><g transform="translate(329.339532, 54.477219)"><g><path d="M 3.578125 0.078125 C 2.734375 0.078125 2.070312 -0.160156 1.59375 -0.640625 C 1.125 -1.128906 0.890625 -1.828125 0.890625 -2.734375 L 0.890625 -6.328125 L 1.796875 -6.328125 L 1.796875 -2.765625 C 1.796875 -1.410156 2.390625 -0.734375 3.578125 -0.734375 C 4.160156 -0.734375 4.601562 -0.898438 4.90625 -1.234375 C 5.21875 -1.566406 5.375 -2.078125 5.375 -2.765625 L 5.375 -6.328125 L 6.25 -6.328125 L 6.25 -2.734375 C 6.25 -1.816406 6.015625 -1.117188 5.546875 -0.640625 C 5.078125 -0.160156 4.421875 0.078125 3.578125 0.078125 Z M 3.578125 0.078125 "/></g></g></g><g fill="#000000" fill-opacity="1"><g transform="translate(338.736628, 54.477219)"><g><path d="M 4.984375 -1.578125 L 1.625 -1.578125 L 0.921875 0 L -0.015625 0 L 2.859375 -6.328125 L 3.75 -6.328125 L 6.625 0 L 5.6875 0 Z M 4.671875 -2.3125 L 3.296875 -5.40625 L 1.9375 -2.3125 Z M 4.671875 -2.3125 "/></g></g></g><g fill="#000000" fill-opacity="1"><g transform="translate(347.600195, 54.477219)"><g><path d="M 5.1875 0 L 3.8125 -1.9375 C 3.644531 -1.925781 3.515625 -1.921875 3.421875 -1.921875 L 1.859375 -1.921875 L 1.859375 0 L 0.953125 0 L 0.953125 -6.328125 L 3.421875 -6.328125 C 4.242188 -6.328125 4.890625 -6.128906 5.359375 -5.734375 C 5.828125 -5.347656 6.0625 -4.8125 6.0625 -4.125 C 6.0625 -3.632812 5.941406 -3.21875 5.703125 -2.875 C 5.460938 -2.53125 5.117188 -2.28125 4.671875 -2.125 L 6.171875 0 Z M 3.390625 -2.703125 C 3.960938 -2.703125 4.398438 -2.820312 4.703125 -3.0625 C 5.003906 -3.3125 5.15625 -3.664062 5.15625 -4.125 C 5.15625 -4.582031 5.003906 -4.929688 4.703125 -5.171875 C 4.398438 -5.421875 3.960938 -5.546875 3.390625 -5.546875 L 1.859375 -5.546875 L 1.859375 -2.703125 Z M 3.390625 -2.703125 "/></g></g></g><g fill="#000000" fill-opacity="1"><g transform="translate(356.418547, 54.477219)"><g><path d="M 4.984375 -1.578125 L 1.625 -1.578125 L 0.921875 0 L -0.015625 0 L 2.859375 -6.328125 L 3.75 -6.328125 L 6.625 0 L 5.6875 0 Z M 4.671875 -2.3125 L 3.296875 -5.40625 L 1.9375 -2.3125 Z M 4.671875 -2.3125 "/></g></g></g><g fill="#000000" fill-opacity="1"><g transform="translate(365.282114, 54.477219)"><g><path d="M 6.390625 -6.328125 L 6.390625 0 L 5.65625 0 L 1.859375 -4.71875 L 1.859375 0 L 0.953125 0 L 0.953125 -6.328125 L 1.6875 -6.328125 L 5.484375 -1.609375 L 5.484375 -6.328125 Z M 6.390625 -6.328125 "/></g></g></g></svg>
