<svg xmlns="http://www.w3.org/2000/svg" xmlns:xlink="http://www.w3.org/1999/xlink" width="500" zoomAndPan="magnify" viewBox="0 0 375 374.999991" height="500" preserveAspectRatio="xMidYMid meet" version="1.0"><defs><g/></defs><path stroke-linecap="butt" transform="matrix(0.749236, 0.000000000000000793, -0.000000000000000794, 0.75, 27.696796, 289.981035)" fill="none" stroke-linejoin="miter" d="M -0.00197986 36.999248 L 429.440752 36.999248 " stroke="currentColor" stroke-width="74" stroke-opacity="1" stroke-miterlimit="4"/><g fill="currentColor" fill-opacity="1"><g transform="translate(27.696796, 226.743568)"><g><path d="M 164.25 -98.59375 C 175.050781 -94.8125 183.515625 -88.914062 189.640625 -80.90625 C 195.765625 -72.894531 198.828125 -63.210938 198.828125 -51.859375 C 198.828125 -35.296875 192.160156 -22.507812 178.828125 -13.5 C 165.503906 -4.5 146.234375 0 121.015625 0 L 18.90625 0 L 18.90625 -189.09375 L 115.625 -189.09375 C 139.75 -189.09375 158.113281 -184.632812 170.71875 -175.71875 C 183.332031 -166.8125 189.640625 -154.789062 189.640625 -139.65625 C 189.640625 -130.65625 187.429688 -122.597656 183.015625 -115.484375 C 178.609375 -108.367188 172.351562 -102.738281 164.25 -98.59375 Z M 71.859375 -150.46875 L 71.859375 -114 L 108.59375 -114 C 126.601562 -114 135.609375 -120.125 135.609375 -132.375 C 135.609375 -144.4375 126.601562 -150.46875 108.59375 -150.46875 Z M 116.703125 -38.625 C 135.429688 -38.625 144.796875 -45.019531 144.796875 -57.8125 C 144.796875 -70.59375 135.429688 -76.984375 116.703125 -76.984375 L 71.859375 -76.984375 L 71.859375 -38.625 Z M 116.703125 -38.625 "/></g></g></g><g fill="currentColor" fill-opacity="1"><g transform="translate(258.915991, 226.743568)"><g><path d="M 38.09375 2.4375 C 29.445312 2.4375 22.148438 -0.441406 16.203125 -6.203125 C 10.265625 -11.972656 7.296875 -19.269531 7.296875 -28.09375 C 7.296875 -37.101562 10.222656 -44.394531 16.078125 -49.96875 C 21.929688 -55.550781 29.269531 -58.34375 38.09375 -58.34375 C 47.09375 -58.34375 54.472656 -55.550781 60.234375 -49.96875 C 66.003906 -44.394531 68.890625 -37.101562 68.890625 -28.09375 C 68.890625 -19.269531 65.960938 -11.972656 60.109375 -6.203125 C 54.253906 -0.441406 46.914062 2.4375 38.09375 2.4375 Z M 38.09375 2.4375 "/></g></g></g></svg>
