<svg xmlns="http://www.w3.org/2000/svg" xmlns:xlink="http://www.w3.org/1999/xlink" width="500" zoomAndPan="magnify" viewBox="0 0 375 374.999991" height="500" preserveAspectRatio="xMidYMid meet" version="1.0"><defs><g/></defs><g fill="#da0c81" fill-opacity="1"><g transform="translate(0.0000045, 299.394389)"><g><path d="M 194.59375 -116.828125 C 207.394531 -112.335938 217.421875 -105.34375 224.671875 -95.84375 C 231.929688 -86.351562 235.5625 -74.890625 235.5625 -61.453125 C 235.5625 -41.816406 227.664062 -26.664062 211.875 -16 C 196.09375 -5.332031 173.265625 0 143.390625 0 L 22.40625 0 L 22.40625 -224.046875 L 136.984375 -224.046875 C 165.578125 -224.046875 187.34375 -218.765625 202.28125 -208.203125 C 217.21875 -197.640625 224.6875 -183.394531 224.6875 -165.46875 C 224.6875 -154.800781 222.070312 -145.253906 216.84375 -136.828125 C 211.613281 -128.398438 204.195312 -121.734375 194.59375 -116.828125 Z M 85.140625 -178.28125 L 85.140625 -135.0625 L 128.671875 -135.0625 C 150.003906 -135.0625 160.671875 -142.316406 160.671875 -156.828125 C 160.671875 -171.128906 150.003906 -178.28125 128.671875 -178.28125 Z M 138.265625 -45.765625 C 160.453125 -45.765625 171.546875 -53.34375 171.546875 -68.5 C 171.546875 -83.644531 160.453125 -91.21875 138.265625 -91.21875 L 85.140625 -91.21875 L 85.140625 -45.765625 Z M 138.265625 -45.765625 "/></g></g></g><g fill="#da0c81" fill-opacity="1"><g transform="translate(273.946929, 299.394389)"><g><path d="M 45.125 2.875 C 34.882812 2.875 26.242188 -0.535156 19.203125 -7.359375 C 12.160156 -14.191406 8.640625 -22.832031 8.640625 -33.28125 C 8.640625 -43.957031 12.109375 -52.601562 19.046875 -59.21875 C 25.984375 -65.832031 34.675781 -69.140625 45.125 -69.140625 C 55.789062 -69.140625 64.535156 -65.832031 71.359375 -59.21875 C 78.191406 -52.601562 81.609375 -43.957031 81.609375 -33.28125 C 81.609375 -22.832031 78.140625 -14.191406 71.203125 -7.359375 C 64.273438 -0.535156 55.582031 2.875 45.125 2.875 Z M 45.125 2.875 "/></g></g></g></svg>